<?xml version="1.0" encoding="UTF-8"?>
<svg width="224px" height="150px" viewBox="0 0 224 150" version="1.1" xmlns="http://www.w3.org/2000/svg" xmlns:xlink="http://www.w3.org/1999/xlink">
    <title>commentBubbles</title>
    <g id="Page-1" stroke="none" stroke-width="1" fill="none" fill-rule="evenodd">
        <g id="5096" transform="translate(-114.000000, -102.000000)">
            <g id="commentBubbles" transform="translate(114.000000, 102.000000)">
                <path d="M136.363636,87.6592561 C136.363636,118.868669 105.839199,144.149681 68.1803763,144.149681 C56.4089304,144.149681 45.3382344,141.671321 35.6805734,137.336359 L8.59355925,150 L17.7090763,125.658856 C6.71624144,115.603711 0,102.312526 0,87.6592561 C0,56.4758706 30.5215541,31.1688312 68.1803763,31.1688312 C105.839199,31.1688312 136.363636,56.4758706 136.363636,87.6592561" id="Fill-60" fill="#9EA0A5"></path>
                <path d="M200.673278,119.24262 L212.187172,150 L177.951297,134.008935 L177.925332,134.008935 C165.733472,139.485644 151.712544,142.616842 136.837667,142.616842 C89.2357517,142.616842 50.6493506,110.686707 50.6493506,71.2954226 C50.6493506,31.9301354 89.2357517,0 136.837667,0 C184.465547,0 223.051948,31.9301354 223.051948,71.2954226 C223.051948,89.7648713 214.584577,106.59073 200.673278,119.24262" id="Fill-61" fill="#528FE2"></path>
                <path d="M88.6363636,141.233766 L88.6363636,141.233766 C92.7089461,140.217996 96.6186253,138.907236 100.324675,137.337662 C96.6244433,138.910019 92.7147641,140.223562 88.6363636,141.233766" id="Fill-62" fill="#5C5966"></path>
                <path d="M88.5178118,142.207792 C62.9431271,129.855996 45.7792208,107.004741 45.7792208,80.8440931 C45.7792208,70.8120458 48.2946208,61.2502958 52.8554154,52.5974026 C50.8100209,58.6708738 49.71044,65.1050025 49.71044,71.7237878 C49.71044,101.115926 71.3539054,126.338865 102.272727,137.204752 C101.582225,137.536557 100.88302,137.856821 100.17511,138.168429 C96.4788934,139.795715 92.5795881,141.154672 88.5149105,142.207792" id="Fill-63" fill="#6B6C6F"></path>
                <polygon id="Fill-64" fill="#C9DBF6" points="89.6103896 54.5454545 184.090909 54.5454545 184.090909 48.7012987 89.6103896 48.7012987"></polygon>
                <polygon id="Fill-65" fill="#C9DBF6" points="89.6103896 75 184.090909 75 184.090909 69.1558442 89.6103896 69.1558442"></polygon>
                <polygon id="Fill-66" fill="#C9DBF6" points="89.6103896 95.4545455 184.090909 95.4545455 184.090909 89.6103896 89.6103896 89.6103896"></polygon>
            </g>
        </g>
    </g>
</svg>