<?xml version="1.0" encoding="UTF-8"?>
<svg width="282px" height="207px" viewBox="0 0 282 207" version="1.1" xmlns="http://www.w3.org/2000/svg" xmlns:xlink="http://www.w3.org/1999/xlink">
    <title>postPlaceholder</title>
    <g id="Page-1" stroke="none" stroke-width="1" fill="none" fill-rule="evenodd">
        <g id="4575" transform="translate(-547.000000, -229.000000)">
            <g id="postPlaceholder" transform="translate(547.000000, 229.000000)">
                <g id="postIcon">
                    <path d="M265.593027,147 L14.3787417,147 C6.36853767,147 -0.100850088,139.782925 0,130.963555 L1.32772134,16.0364454 C1.42976216,7.21595096 8.06241522,0 16.0726193,0 L267.286905,0 C275.297109,0 281.766497,7.21595096 281.665647,16.0364454 L280.34813,130.963555 C280.246089,139.782925 273.603232,147 265.593027,147" id="Fill-89" fill="#1765D8"></path>
                    <path d="M253.246089,133.922449 L27.0113948,133.922449 C20.0726193,133.922449 14.4705785,127.668917 14.561302,120.02596 L15.654252,24.8178135 C15.7358846,17.1748572 21.4909866,10.922449 28.4297622,10.922449 L254.654252,10.922449 C261.593027,10.922449 267.195068,17.1748572 267.114317,24.8178135 L266.011395,120.02596 C265.929762,127.668917 260.184864,133.922449 253.246089,133.922449" id="Fill-90" fill="#FFFFFF"></path>
                    <path d="M111.95017,134.427551 C110.45017,189.443878 84.3379254,206.434694 84.3379254,206.434694 C84.3379254,206.434694 96.0624152,174.880612 87.3583336,159.509184 C78.654252,144.136735 64.1746601,137.664286 64.1746601,137.664286 L111.95017,134.427551" id="Fill-91" fill="#1765D8"></path>
                    <path d="M242.990987,41.6663265 L97.154252,41.6663265 C94.7664969,41.6663265 92.8379254,39.7102041 92.8681782,37.3173469 L92.8681782,37.1153061 C92.8991499,34.7234694 94.8787417,32.7663265 97.2664969,32.7663265 L243.103232,32.7663265 C245.501191,32.7663265 247.429762,34.7234694 247.399509,37.1153061 L247.399509,37.3173469 C247.368538,39.7102041 245.388946,41.6663265 242.990987,41.6663265" id="Fill-92" fill="#1765D8"></path>
                    <path d="M242.756293,60.2744898 L96.9195581,60.2744898 C94.531803,60.2744898 92.6032315,58.3183673 92.6334843,55.9265306 L92.6334843,55.7234694 C92.664456,53.3326531 94.6440479,51.3755102 97.031803,51.3755102 L242.868538,51.3755102 C245.266497,51.3755102 247.195068,53.3326531 247.164815,55.7234694 L247.164815,55.9265306 C247.133844,58.3183673 245.154252,60.2744898 242.756293,60.2744898" id="Fill-93" fill="#1765D8"></path>
                    <path d="M242.490987,81.3112245 L96.654252,81.3112245 C94.2664969,81.3112245 92.3379254,79.3540816 92.3581731,76.9622449 L92.3685377,76.7602041 C92.3991499,74.3673469 94.3787417,72.4112245 96.7664969,72.4112245 L242.603232,72.4112245 C245.001191,72.4112245 246.929762,74.3673469 246.899509,76.7602041 L246.899509,76.9622449 C246.868538,79.3540816 244.888946,81.3112245 242.490987,81.3112245" id="Fill-94" fill="#1765D8"></path>
                    <path d="M79.6746601,56.6336735 C79.4705785,72.4969388 68.8073132,85.3561224 55.8481295,85.3561224 C42.8889458,85.3561224 32.5522111,72.4969388 32.7460887,56.6336735 C32.9501703,40.7714286 43.6134356,27.9122449 56.5726193,27.9122449 C69.531803,27.9122449 79.8787417,40.7714286 79.6746601,56.6336735" id="Fill-95" fill="#1765D8"></path>
                </g>
                <path d="M64.0521008,118 C64.6268908,118 65.0952381,117.798883 65.4571429,117.396648 C65.8190476,116.994413 66,116.469274 66,115.821229 L66,115.821229 L66,96.1452514 C66,95.4972067 65.8243697,94.9776536 65.4731092,94.5865922 C65.1218487,94.1955307 64.6481793,94 64.0521008,94 C63.4773109,94 63.0142857,94.1955307 62.6630252,94.5865922 C62.3117647,94.9776536 62.1361345,95.4972067 62.1361345,96.1452514 L62.1361345,96.1452514 L62.1361345,110.625698 L50.512605,94.7709497 C50.1507003,94.2569832 49.6397759,94 48.9798319,94 C48.3837535,94 47.9047619,94.1955307 47.5428571,94.5865922 C47.1809524,94.9776536 47,95.4972067 47,96.1452514 L47,96.1452514 L47,115.821229 C47,116.469274 47.1703081,116.994413 47.5109244,117.396648 C47.8515406,117.798883 48.319888,118 48.9159664,118 C49.5120448,118 49.9803922,117.798883 50.3210084,117.396648 C50.6616246,116.994413 50.8319328,116.469274 50.8319328,115.821229 L50.8319328,115.821229 L50.8319328,101.307263 L62.487395,117.22905 C62.8492997,117.743017 63.3708683,118 64.0521008,118 Z M85.0163934,118 C87.2459016,118 89.1857923,117.51314 90.8360656,116.539419 C92.4863388,115.565698 93.7595628,114.171508 94.6557377,112.356846 C95.5519126,110.542185 96,108.417704 96,105.983402 C96,103.549101 95.557377,101.430152 94.6721311,99.626556 C93.7868852,97.8229599 92.5191257,96.4343015 90.8688525,95.4605809 C89.2185792,94.4868603 87.2677596,94 85.0163934,94 C82.7650273,94 80.8087432,94.4868603 79.147541,95.4605809 C77.4863388,96.4343015 76.2131148,97.8229599 75.3278689,99.626556 C74.442623,101.430152 74,103.549101 74,105.983402 C74,108.417704 74.4480874,110.542185 75.3442623,112.356846 C76.2404372,114.171508 77.5136612,115.565698 79.1639344,116.539419 C80.8142077,117.51314 82.7650273,118 85.0163934,118 Z M85.5157385,114 C83.4592413,114 81.8591606,113.265635 80.7154964,111.796905 C79.5718321,110.328175 79,108.223727 79,105.483559 C79,102.743391 79.5718321,100.644423 80.7154964,99.1866538 C81.8591606,97.7288846 83.4592413,97 85.5157385,97 C87.551251,97 89.1408394,97.7288846 90.2845036,99.1866538 C91.4281679,100.644423 92,102.743391 92,105.483559 C92,108.223727 91.4281679,110.328175 90.2845036,111.796905 C89.1408394,113.265635 87.551251,114 85.5157385,114 Z M119.106033,118 C119.764168,118 120.285192,117.803094 120.669104,117.409283 C121.053016,117.015471 121.244973,116.481013 121.244973,115.805907 L121.244973,115.805907 L121.244973,108.548523 L127.135283,108.548523 C129.61426,108.548523 131.54479,107.907173 132.926874,106.624473 C134.308958,105.341772 135,103.552743 135,101.257384 C135,98.9620253 134.308958,97.1786217 132.926874,95.907173 C131.54479,94.6357243 129.61426,94 127.135283,94 L127.135283,94 L119.040219,94 C118.404022,94 117.904936,94.1800281 117.542962,94.5400844 C117.180987,94.9001406 117,95.4064698 117,96.0590717 L117,96.0590717 L117,115.805907 C117,116.481013 117.191956,117.015471 117.575868,117.409283 C117.959781,117.803094 118.469835,118 119.106033,118 Z M125.956081,105 L121,105 L121,98 L125.956081,98 C128.652027,98 130,99.1666667 130,101.5 C130,103.833333 128.652027,105 125.956081,105 L125.956081,105 Z M151.016393,118 C153.245902,118 155.185792,117.51314 156.836066,116.539419 C158.486339,115.565698 159.759563,114.171508 160.655738,112.356846 C161.551913,110.542185 162,108.417704 162,105.983402 C162,103.549101 161.557377,101.430152 160.672131,99.626556 C159.786885,97.8229599 158.519126,96.4343015 156.868852,95.4605809 C155.218579,94.4868603 153.26776,94 151.016393,94 C148.765027,94 146.808743,94.4868603 145.147541,95.4605809 C143.486339,96.4343015 142.213115,97.8229599 141.327869,99.626556 C140.442623,101.430152 140,103.549101 140,105.983402 C140,108.417704 140.448087,110.542185 141.344262,112.356846 C142.240437,114.171508 143.513661,115.565698 145.163934,116.539419 C146.814208,117.51314 148.765027,118 151.016393,118 Z M151.515738,114 C149.459241,114 147.859161,113.265635 146.715496,111.796905 C145.571832,110.328175 145,108.223727 145,105.483559 C145,102.743391 145.571832,100.644423 146.715496,99.1866538 C147.859161,97.7288846 149.459241,97 151.515738,97 C153.551251,97 155.140839,97.7288846 156.284504,99.1866538 C157.428168,100.644423 158,102.743391 158,105.483559 C158,108.223727 157.428168,110.328175 156.284504,111.796905 C155.140839,113.265635 153.551251,114 151.515738,114 Z M179.081081,118 C180.832432,118 182.383784,117.706777 183.735135,117.120332 C185.086486,116.533887 186.135135,115.715076 186.881081,114.6639 C187.627027,113.612725 188,112.401107 188,111.029046 C188,109.767635 187.681081,108.716459 187.043243,107.875519 C186.405405,107.034578 185.486486,106.343015 184.286486,105.80083 C183.086486,105.258645 181.524324,104.766252 179.6,104.323651 C177.783784,103.903181 176.497297,103.449516 175.740541,102.962656 C174.983784,102.475795 174.605405,101.7787 174.605405,100.871369 C174.605405,99.7869986 175.032432,98.9405256 175.886486,98.3319502 C176.740541,97.7233748 177.902703,97.4190871 179.372973,97.4190871 C180.583784,97.4190871 181.605405,97.5795297 182.437838,97.9004149 C183.27027,98.2213001 184.12973,98.7136929 185.016216,99.3775934 C185.318919,99.5546335 185.562162,99.6763485 185.745946,99.7427386 C185.92973,99.8091286 186.12973,99.8423237 186.345946,99.8423237 C186.713514,99.8423237 187.032432,99.670816 187.302703,99.3278008 C187.572973,98.9847856 187.708108,98.5809129 187.708108,98.1161826 C187.708108,97.7621024 187.648649,97.4688797 187.52973,97.2365145 C187.410811,97.0041494 187.210811,96.7662517 186.92973,96.5228216 C184.983784,94.8409405 182.464865,94 179.372973,94 C177.686486,94 176.167568,94.3042877 174.816216,94.9128631 C173.464865,95.5214385 172.410811,96.3679115 171.654054,97.4522822 C170.897297,98.5366528 170.518919,99.7648686 170.518919,101.136929 C170.518919,102.46473 170.821622,103.560166 171.427027,104.423237 C172.032432,105.286307 172.92973,105.994467 174.118919,106.547718 C175.308108,107.100968 176.854054,107.587828 178.756757,108.008299 C180.594595,108.428769 181.908108,108.865837 182.697297,109.319502 C183.486486,109.773167 183.881081,110.42047 183.881081,111.261411 C183.881081,112.345781 183.459459,113.170124 182.616216,113.73444 C181.772973,114.298755 180.562162,114.580913 178.983784,114.580913 C177.751351,114.580913 176.627027,114.426003 175.610811,114.116183 C174.594595,113.806362 173.621622,113.308437 172.691892,112.622407 C172.194595,112.312586 171.751351,112.157676 171.362162,112.157676 C170.994595,112.157676 170.675676,112.329184 170.405405,112.672199 C170.135135,113.015214 170,113.419087 170,113.883817 C170,114.569848 170.248649,115.100968 170.745946,115.477178 C171.675676,116.251729 172.881081,116.865837 174.362162,117.319502 C175.843243,117.773167 177.416216,118 179.081081,118 Z M202.016313,118 C202.647091,118 203.1528,117.802817 203.533442,117.408451 C203.914084,117.014085 204.104405,116.490141 204.104405,115.83662 L204.104405,115.83662 L204.104405,97.5830986 L210.042414,97.5830986 C211.347471,97.5830986 212,96.9859155 212,95.7915493 C212,94.5971831 211.347471,94 210.042414,94 L210.042414,94 L193.957586,94 C192.652529,94 192,94.5971831 192,95.7915493 C192,96.9859155 192.652529,97.5830986 193.957586,97.5830986 L193.957586,97.5830986 L199.895595,97.5830986 L199.895595,115.83662 C199.895595,116.490141 200.085916,117.014085 200.466558,117.408451 C200.8472,117.802817 201.363785,118 202.016313,118 Z M226.081081,118 C227.832432,118 229.383784,117.706777 230.735135,117.120332 C232.086486,116.533887 233.135135,115.715076 233.881081,114.6639 C234.627027,113.612725 235,112.401107 235,111.029046 C235,109.767635 234.681081,108.716459 234.043243,107.875519 C233.405405,107.034578 232.486486,106.343015 231.286486,105.80083 C230.086486,105.258645 228.524324,104.766252 226.6,104.323651 C224.783784,103.903181 223.497297,103.449516 222.740541,102.962656 C221.983784,102.475795 221.605405,101.7787 221.605405,100.871369 C221.605405,99.7869986 222.032432,98.9405256 222.886486,98.3319502 C223.740541,97.7233748 224.902703,97.4190871 226.372973,97.4190871 C227.583784,97.4190871 228.605405,97.5795297 229.437838,97.9004149 C230.27027,98.2213001 231.12973,98.7136929 232.016216,99.3775934 C232.318919,99.5546335 232.562162,99.6763485 232.745946,99.7427386 C232.92973,99.8091286 233.12973,99.8423237 233.345946,99.8423237 C233.713514,99.8423237 234.032432,99.670816 234.302703,99.3278008 C234.572973,98.9847856 234.708108,98.5809129 234.708108,98.1161826 C234.708108,97.7621024 234.648649,97.4688797 234.52973,97.2365145 C234.410811,97.0041494 234.210811,96.7662517 233.92973,96.5228216 C231.983784,94.8409405 229.464865,94 226.372973,94 C224.686486,94 223.167568,94.3042877 221.816216,94.9128631 C220.464865,95.5214385 219.410811,96.3679115 218.654054,97.4522822 C217.897297,98.5366528 217.518919,99.7648686 217.518919,101.136929 C217.518919,102.46473 217.821622,103.560166 218.427027,104.423237 C219.032432,105.286307 219.92973,105.994467 221.118919,106.547718 C222.308108,107.100968 223.854054,107.587828 225.756757,108.008299 C227.594595,108.428769 228.908108,108.865837 229.697297,109.319502 C230.486486,109.773167 230.881081,110.42047 230.881081,111.261411 C230.881081,112.345781 230.459459,113.170124 229.616216,113.73444 C228.772973,114.298755 227.562162,114.580913 225.983784,114.580913 C224.751351,114.580913 223.627027,114.426003 222.610811,114.116183 C221.594595,113.806362 220.621622,113.308437 219.691892,112.622407 C219.194595,112.312586 218.751351,112.157676 218.362162,112.157676 C217.994595,112.157676 217.675676,112.329184 217.405405,112.672199 C217.135135,113.015214 217,113.419087 217,113.883817 C217,114.569848 217.248649,115.100968 217.745946,115.477178 C218.675676,116.251729 219.881081,116.865837 221.362162,117.319502 C222.843243,117.773167 224.416216,118 226.081081,118 Z" id="NOPOSTS" fill="#1765D8" fill-rule="nonzero"></path>
            </g>
        </g>
    </g>
</svg>