<?xml version="1.0" encoding="UTF-8"?>
<svg width="213px" height="35px" viewBox="0 0 213 35" version="1.1" xmlns="http://www.w3.org/2000/svg" xmlns:xlink="http://www.w3.org/1999/xlink">
    <title>arr-logo-sm</title>
    <g id="Page-1" stroke="none" stroke-width="1" fill="none" fill-rule="evenodd">
        <g id="iPhone-SE" transform="translate(-53.000000, -232.000000)" fill="#A8AAAF">
            <g id="arr-logo-sm" transform="translate(53.000000, 232.000000)">
                <g id="arr-logo">
                    <path d="M14.2467324,6.90805438e-15 L11.6731967,3.2545875 C11.6731967,3.83633278 11.6731967,4.12720543 11.6731967,4.12720543 C8.55859821,4.88525465 4.95858694,6.48934447 0.873162924,8.93947487 C1.20950195,15.7513489 1.7296458,20.3603032 2.43359445,22.7663378 C1.88376516,23.0579325 1.60885051,23.2037298 1.60885051,23.2037298 C0.536283504,25.8650448 6.90805438e-15,27.1957023 6.90805438e-15,27.1957023 L5.21628114,24.1186109 C4.02410771,21.5490902 3.48328493,16.8086049 3.59381279,9.89715486 C9.17352454,7.06824677 12.7368953,5.78118077 14.2839252,6.03595686 L14.247891,0.396052502 L14.2467324,6.90805438e-15 Z" id="Path"></path>
                    <path d="M29.8383326,6.90805438e-15 L27.264797,3.2545875 C27.264797,3.83633278 27.264797,4.12720543 27.264797,4.12720543 C24.1501984,4.88525465 20.5501871,6.48934447 16.4647631,8.93947487 C16.8011022,15.7513489 17.321246,20.3603032 18.0251947,22.7663378 C17.4753654,23.0579325 17.2004507,23.2037298 17.2004507,23.2037298 C16.1278837,25.8650448 15.5916002,27.1957023 15.5916002,27.1957023 L20.8078814,24.1186109 C19.6157079,21.5490902 19.0748851,16.8086049 19.185413,9.89715486 C24.7651247,7.06824677 28.3284955,5.78118077 29.8755254,6.03595686 L29.8267852,0.278859445 L29.8383326,6.90805438e-15 Z" id="Path" transform="translate(22.733563, 13.597851) scale(-1, 1) translate(-22.733563, -13.597851) "></path>
                    <path d="M0.701416282,28.2172274 L5.69613442,25.3270933 C7.51502323,28.5031021 10.5801785,30.9092554 14.8916002,32.5455532 C19.1768308,30.9000559 22.2305688,28.5117051 24.0528141,25.3805006 C27.5195142,27.2716518 29.2528643,28.2172274 29.2528643,28.2172274 C26.4771188,28.6578874 25.089246,28.8782175 25.089246,28.8782175 C24.6474592,28.7116619 24.4265658,28.6283841 24.4265658,28.6283841 C22.2689654,31.1892544 19.115674,33.2556334 14.9666916,34.8275212 C10.6487238,33.2361337 7.47303373,31.1697547 5.43962145,28.6283841 L4.76811861,28.8782175 L0.701416282,28.2172274 Z" id="Path-2"></path>
                    <path d="M14.2839252,7.0970367 L14.3040009,15.4870302 L12.4287432,16.4063456 C12.4287432,16.4063456 13.0718316,16.8378408 14.3580085,17.7008313 C14.3580085,17.7008313 14.3807589,20.7236719 14.4262598,26.769353 C13.5530387,26.4119026 12.6110858,25.702089 11.6004013,24.6399122 L11.6004013,24.6399122 L11.6004013,17.871078 L7.81147861,19.4781632 C8.29392003,23.0107286 10.458045,25.8923246 14.3038534,28.1229511 L14.3038534,28.1229511 L14.2839252,31.0097441 C7.10979054,28.3104102 3.92419261,21.5263719 4.72713138,10.657629 L4.72713138,10.657629 L5.07549138,10.4733145 C9.07431152,8.39029002 12.1437895,7.26486409 14.2839252,7.0970367 L14.2839252,7.0970367 Z M11.6321363,10.5165044 C9.73660187,11.1803971 8.35526816,11.7884316 7.48813519,12.3406079 C7.53089446,15.232204 7.5522741,16.678002 7.5522741,16.678002 C9.62767103,15.6870715 10.9714049,15.1451134 11.5834756,15.0521277 L11.6321363,10.5677071 L11.6321363,10.5165044 Z" id="Combined-Shape"></path>
                    <path d="M15.7039268,7.09334958 C17.3515713,7.13575603 20.4831636,8.34470194 25.0987037,10.7201873 C25.2812874,13.9695861 25.1899955,16.4914281 24.8248283,18.2857135 L24.8248283,18.2857135 L23.1406281,18.5500208 L24.4947785,20.4290821 C23.502846,25.4761957 20.5116358,29.003083 15.521148,31.0097441 L15.521148,31.0097441 L15.4830493,27.9736552 C19.0512738,26.1489849 21.2126033,23.335354 21.9670378,19.5327625 L21.9670378,19.5327625 L18.2098412,17.8886867 C18.2098412,17.8886867 18.1824743,20.2078829 18.1277403,24.8462753 C17.601252,25.4528068 16.7323879,26.0630601 15.521148,26.6770352 L15.521148,26.6770352 L15.4830493,7.09270806 Z M18.2566867,10.5165044 L18.1462602,10.5165044 L18.1462602,14.982061 C20.3658148,15.8456327 21.7428584,16.4109463 22.2773909,16.678002 L22.324271,12.4005865 C21.282314,11.6717051 19.9264526,11.0436777 18.2566867,10.5165044 Z" id="Combined-Shape"></path>
                </g>
                <path d="M41.0027778,29 C41.2578704,29 41.4491898,28.9253571 41.5767361,28.7760714 C41.7042824,28.6267857 41.7680556,28.4345238 41.7680556,28.1992857 L41.7680556,28.1992857 L41.7680556,21.1014286 L42.5333333,21.1014286 C42.8060185,21.1014286 43.0017361,21.1760714 43.1204861,21.3253571 C43.2392361,21.4746429 43.2986111,21.6714286 43.2986111,21.9157143 L43.2986111,21.9157143 L43.2986111,28.1992857 C43.2986111,28.4345238 43.3623843,28.6267857 43.4899306,28.7760714 C43.6174769,28.9253571 43.8087963,29 44.0638889,29 L44.0638889,29 L44.8027778,29 C44.8907407,29 44.956713,28.9728571 45.0006944,28.9185714 C45.0446759,28.8642857 45.0666667,28.7964286 45.0666667,28.715 L45.0666667,28.715 L45.0666667,21.9157143 C45.0666667,21.5266667 44.9896991,21.2077381 44.8357639,20.9589286 C44.6818287,20.710119 44.4685185,20.5088095 44.1958333,20.355 C44.4685185,20.2011905 44.6818287,19.997619 44.8357639,19.7442857 C44.9896991,19.4909524 45.0666667,19.1652381 45.0666667,18.7671429 L45.0666667,18.7671429 L45.0666667,12.3342857 C45.0666667,11.9814286 45.0072917,11.6602381 44.8885417,11.3707143 C44.7697917,11.0811905 44.600463,10.8369048 44.3805556,10.6378571 C44.1606481,10.4388095 43.8967593,10.2827381 43.5888889,10.1696429 C43.2810185,10.0565476 42.937963,10 42.5597222,10 L42.5597222,10 L40.2638889,10 C40.1759259,10 40.1099537,10.0271429 40.0659722,10.0814286 C40.0219907,10.1357143 40,10.2035714 40,10.285 L40,10.285 L40,28.715 C40,28.7964286 40.0219907,28.8642857 40.0659722,28.9185714 C40.1099537,28.9728571 40.1759259,29 40.2638889,29 L40.2638889,29 L41.0027778,29 Z M42.5333333,18.8666667 L41.5048,18.8666667 L41.5048,11.2666667 L42.5333333,11.2666667 C42.8761778,11.2666667 43.1333111,11.3391695 43.3047333,11.4841751 C43.4761556,11.6291807 43.5618667,11.8125701 43.5618667,12.0343434 L43.5618667,12.0343434 L43.5618667,18.0989899 C43.5618667,18.3207632 43.4791111,18.5041526 43.3136,18.6491582 C43.1480889,18.7941639 42.888,18.8666667 42.5333333,18.8666667 L42.5333333,18.8666667 Z M54.9409091,29 C55.0149351,29 55.0766234,28.9785311 55.125974,28.9355932 C55.1753247,28.8926554 55.2,28.8282486 55.2,28.7423729 L55.2,28.7423729 L55.2,28.3044068 C55.2,28.0811299 55.1424242,27.900791 55.0272727,27.7633898 C54.9121212,27.6259887 54.7599567,27.5572881 54.5707792,27.5572881 L54.5707792,27.5572881 L53.0532468,27.5572881 L53.0532468,22.2115254 L54.324026,22.2115254 C54.5132035,22.2115254 54.665368,22.1428249 54.7805195,22.0054237 C54.895671,21.8680226 54.9532468,21.6876836 54.9532468,21.4644068 L54.9532468,21.4644068 L54.9532468,21.0264407 C54.9532468,20.940565 54.9285714,20.8761582 54.8792208,20.8332203 C54.8298701,20.7902825 54.7681818,20.7688136 54.6941558,20.7688136 L54.6941558,20.7688136 L53.0532468,20.7688136 L53.0532468,15.2427119 L54.5707792,15.2427119 C54.7599567,15.2427119 54.9121212,15.1740113 55.0272727,15.0366102 C55.1424242,14.899209 55.2,14.7188701 55.2,14.4955932 L55.2,14.4955932 L55.2,14.0576271 C55.2,13.9717514 55.1753247,13.9073446 55.125974,13.8644068 C55.0766234,13.8214689 55.0149351,13.8 54.9409091,13.8 L54.9409091,13.8 L51.6467532,13.8 C51.5645022,13.8 51.5028139,13.8257627 51.4616883,13.8772881 C51.4205628,13.9288136 51.4,13.9932203 51.4,14.0705085 L51.4,14.0705085 L51.4,28.7294915 C51.4,28.8067797 51.4205628,28.8711864 51.4616883,28.9227119 C51.5028139,28.9742373 51.5645022,29 51.6467532,29 L51.6467532,29 L54.9409091,29 Z M62.6129595,29 C62.8876012,29 63.0959502,28.9291525 63.2380062,28.7874576 C63.3800623,28.6457627 63.4463551,28.4632768 63.4368847,28.24 L63.4368847,28.24 L63.0107165,18.4244068 L64.3460436,28.3559322 C64.3649844,28.5362712 64.4738941,28.6887006 64.6727726,28.8132203 C64.8716511,28.9377401 65.0894704,29 65.3262305,29 L65.3262305,29 L65.3546417,29 C65.5914019,29 65.8092212,28.9377401 66.0080997,28.8132203 C66.2069782,28.6887006 66.3158879,28.5362712 66.3348287,28.3559322 L66.3348287,28.3559322 L67.6559502,18.4501695 L67.2297819,28.24 C67.2203115,28.4632768 67.2866044,28.6457627 67.4286604,28.7874576 C67.5707165,28.9291525 67.7790654,29 68.0537072,29 L68.0537072,29 L68.8492212,29 C68.9439252,29 69.0149533,28.9742373 69.0623053,28.9227119 C69.1096573,28.8711864 69.1333333,28.8067797 69.1333333,28.7294915 L69.1333333,28.7294915 L69.1333333,14.0705085 C69.1333333,13.9932203 69.1096573,13.9288136 69.0623053,13.8772881 C69.0149533,13.8257627 68.9439252,13.8 68.8492212,13.8 L68.8492212,13.8 L67.769595,13.8 C67.6370093,13.8 67.5044237,13.8257627 67.371838,13.8772881 C67.2392523,13.9288136 67.1161371,14.0447458 67.0024922,14.2250847 C66.8888474,14.4054237 66.7846729,14.6694915 66.6899688,15.0172881 C66.5952648,15.3650847 66.5147664,15.8352542 66.4484735,16.4277966 L66.4484735,16.4277966 L65.3404361,24.4915254 L64.1045483,16.4277966 C64.0382555,15.8266667 63.957757,15.3522034 63.863053,15.0044068 C63.7683489,14.6566102 63.6641745,14.3925424 63.5505296,14.2122034 C63.4368847,14.0318644 63.3137695,13.9180791 63.1811838,13.8708475 C63.0485981,13.8236158 62.9160125,13.8 62.7834268,13.8 L62.7834268,13.8 L61.8174455,13.8 C61.7227414,13.8 61.6517134,13.8257627 61.6043614,13.8772881 C61.5570093,13.9288136 61.5333333,13.9932203 61.5333333,14.0705085 L61.5333333,14.0705085 L61.5333333,28.7294915 C61.5333333,28.8067797 61.5570093,28.8711864 61.6043614,28.9227119 C61.6517134,28.9742373 61.7227414,29 61.8174455,29 L61.8174455,29 L62.6129595,29 Z M77.7361111,29 C77.9912037,29 78.1847222,28.9291525 78.3166667,28.7874576 C78.4486111,28.6457627 78.5101852,28.4632768 78.5013889,28.24 L78.5013889,28.24 L78.3694444,20.6271186 C78.4398148,21.0564972 78.5299769,21.5331073 78.6399306,22.0569492 C78.7498843,22.580791 78.8664352,23.1132203 78.9895833,23.6542373 C79.1127315,24.1952542 79.2358796,24.7255367 79.3590278,25.2450847 C79.4821759,25.7646328 79.5943287,26.2412429 79.6954861,26.6749153 C79.7966435,27.1085876 79.8802083,27.48 79.9461806,27.7891525 C80.0121528,28.0983051 80.0451389,28.3044068 80.0451389,28.4074576 C80.0715278,28.5877966 80.1462963,28.7316384 80.2694444,28.8389831 C80.3925926,28.9463277 80.5685185,29 80.7972222,29 L80.7972222,29 L81.5361111,29 C81.6240741,29 81.6900463,28.9742373 81.7340278,28.9227119 C81.7780093,28.8711864 81.8,28.8067797 81.8,28.7294915 L81.8,28.7294915 L81.8,14.0705085 C81.8,13.9932203 81.7780093,13.9288136 81.7340278,13.8772881 C81.6900463,13.8257627 81.6240741,13.8 81.5361111,13.8 L81.5361111,13.8 L80.7972222,13.8 C80.5685185,13.8 80.3837963,13.860113 80.2430556,13.980339 C80.1023148,14.100565 80.0319444,14.259435 80.0319444,14.4569492 L80.0319444,14.4569492 L80.1638889,22.6108475 C80.0759259,22.2415819 79.9769676,21.8036158 79.8670139,21.2969492 C79.7570602,20.7902825 79.6427083,20.2557062 79.5239583,19.6932203 C79.4052083,19.1307345 79.2886574,18.5661017 79.1743056,17.999322 C79.0599537,17.4325424 78.9543981,16.9087006 78.8576389,16.4277966 C78.7608796,15.9468927 78.681713,15.5282486 78.6201389,15.1718644 C78.5585648,14.8154802 78.5189815,14.5685876 78.5013889,14.4311864 C78.4837963,14.2422599 78.4068287,14.0898305 78.2704861,13.9738983 C78.1341435,13.8579661 77.9560185,13.8 77.7361111,13.8 L77.7361111,13.8 L76.9972222,13.8 C76.9092593,13.8 76.843287,13.8257627 76.7993056,13.8772881 C76.7553241,13.9288136 76.7333333,13.9932203 76.7333333,14.0705085 L76.7333333,14.0705085 L76.7333333,28.7294915 C76.7333333,28.8067797 76.7553241,28.8711864 76.7993056,28.9227119 C76.843287,28.9742373 76.9092593,29 76.9972222,29 L76.9972222,29 L77.7361111,29 Z M89.1531821,29 C89.379413,29 89.5671846,28.9377401 89.716497,28.8132203 C89.8658094,28.6887006 89.9495148,28.5362712 89.9676133,28.3559322 L89.9676133,28.3559322 L90.1033518,26.2820339 L91.2299815,26.2820339 L91.3657201,28.3559322 C91.3838185,28.5362712 91.467524,28.6887006 91.6168363,28.8132203 C91.7661487,28.9377401 91.9539203,29 92.1801512,29 L92.1801512,29 L92.84527,29 C92.9719593,29 93.0647139,28.9656497 93.123534,28.8969492 C93.182354,28.8282486 93.2072394,28.7552542 93.1981902,28.6779661 L93.1981902,28.6779661 L91.7050664,14.0576271 C91.6960171,13.9889266 91.6688694,13.9288136 91.6236233,13.8772881 C91.5783771,13.8257627 91.5150324,13.8 91.4335893,13.8 L91.4335893,13.8 L89.899744,13.8 C89.8183009,13.8 89.7549562,13.8257627 89.7097101,13.8772881 C89.6644639,13.9288136 89.6373162,13.9889266 89.628267,14.0576271 L89.628267,14.0576271 L88.1351432,28.6779661 C88.1260939,28.7552542 88.1509793,28.8282486 88.2097994,28.8969492 C88.2686194,28.9656497 88.3613741,29 88.4880633,29 L88.4880633,29 L89.1531821,29 Z M91.2784667,23.9333333 L90.0548667,23.9333333 L90.6578,16.3333333 L91.2784667,23.9333333 Z M100.083067,29 C100.2604,29 100.411133,28.9549153 100.535267,28.8647458 C100.6594,28.7745763 100.721467,28.6650847 100.721467,28.5362712 L100.721467,28.5362712 L100.721467,14.0705085 C100.721467,13.9932203 100.691911,13.9288136 100.6328,13.8772881 C100.573689,13.8257627 100.485022,13.8 100.3668,13.8 L100.3668,13.8 L99.3737333,13.8 C99.0663556,13.8 98.8180889,13.860113 98.6289333,13.980339 C98.4397778,14.100565 98.3452,14.259435 98.3452,14.4569492 L98.3452,14.4569492 L98.3452,28.5362712 C98.3452,28.6650847 98.4072667,28.7745763 98.5314,28.8647458 C98.6555333,28.9549153 98.8062667,29 98.9836,29 L98.9836,29 L100.083067,29 Z M108.136111,29 C108.391204,29 108.584722,28.9291525 108.716667,28.7874576 C108.848611,28.6457627 108.910185,28.4632768 108.901389,28.24 L108.901389,28.24 L108.769444,20.6271186 C108.839815,21.0564972 108.929977,21.5331073 109.039931,22.0569492 C109.149884,22.580791 109.266435,23.1132203 109.389583,23.6542373 C109.512731,24.1952542 109.63588,24.7255367 109.759028,25.2450847 C109.882176,25.7646328 109.994329,26.2412429 110.095486,26.6749153 C110.196644,27.1085876 110.280208,27.48 110.346181,27.7891525 C110.412153,28.0983051 110.445139,28.3044068 110.445139,28.4074576 C110.471528,28.5877966 110.546296,28.7316384 110.669444,28.8389831 C110.792593,28.9463277 110.968519,29 111.197222,29 L111.197222,29 L111.936111,29 C112.024074,29 112.090046,28.9742373 112.134028,28.9227119 C112.178009,28.8711864 112.2,28.8067797 112.2,28.7294915 L112.2,28.7294915 L112.2,14.0705085 C112.2,13.9932203 112.178009,13.9288136 112.134028,13.8772881 C112.090046,13.8257627 112.024074,13.8 111.936111,13.8 L111.936111,13.8 L111.197222,13.8 C110.968519,13.8 110.783796,13.860113 110.643056,13.980339 C110.502315,14.100565 110.431944,14.259435 110.431944,14.4569492 L110.431944,14.4569492 L110.563889,22.6108475 C110.475926,22.2415819 110.376968,21.8036158 110.267014,21.2969492 C110.15706,20.7902825 110.042708,20.2557062 109.923958,19.6932203 C109.805208,19.1307345 109.688657,18.5661017 109.574306,17.999322 C109.459954,17.4325424 109.354398,16.9087006 109.257639,16.4277966 C109.16088,15.9468927 109.081713,15.5282486 109.020139,15.1718644 C108.958565,14.8154802 108.918981,14.5685876 108.901389,14.4311864 C108.883796,14.2422599 108.806829,14.0898305 108.670486,13.9738983 C108.534144,13.8579661 108.356019,13.8 108.136111,13.8 L108.136111,13.8 L107.397222,13.8 C107.309259,13.8 107.243287,13.8257627 107.199306,13.8772881 C107.155324,13.9288136 107.133333,13.9932203 107.133333,14.0705085 L107.133333,14.0705085 L107.133333,28.7294915 C107.133333,28.8067797 107.155324,28.8711864 107.199306,28.9227119 C107.243287,28.9742373 107.309259,29 107.397222,29 L107.397222,29 L108.136111,29 Z M121.502963,29 C121.643704,29 121.763333,28.9549153 121.861852,28.8647458 C121.96037,28.7745763 122.00963,28.6650847 122.00963,28.5362712 L122.00963,28.5362712 L122.00963,15.2427119 L122.882222,15.2427119 C123.098025,15.2427119 123.271605,15.1740113 123.402963,15.0366102 C123.534321,14.899209 123.6,14.7188701 123.6,14.4955932 L123.6,14.4955932 L123.6,14.0576271 C123.6,13.9717514 123.571852,13.9073446 123.515556,13.8644068 C123.459259,13.8214689 123.388889,13.8 123.304444,13.8 L123.304444,13.8 L118.828889,13.8 C118.744444,13.8 118.674074,13.8214689 118.617778,13.8644068 C118.561481,13.9073446 118.533333,13.9717514 118.533333,14.0576271 L118.533333,14.0576271 L118.533333,14.4955932 C118.533333,14.7188701 118.599012,14.899209 118.73037,15.0366102 C118.861728,15.1740113 119.035309,15.2427119 119.251111,15.2427119 L119.251111,15.2427119 L120.123704,15.2427119 L120.123704,28.5362712 C120.123704,28.6650847 120.172963,28.7745763 120.271481,28.8647458 C120.37,28.9549153 120.48963,29 120.63037,29 L120.63037,29 L121.502963,29 Z M141.069444,29 C141.324537,29 141.515856,28.9253571 141.643403,28.7760714 C141.770949,28.6267857 141.834722,28.4345238 141.834722,28.1992857 L141.834722,28.1992857 L141.834722,21.1014286 L142.6,21.1014286 C142.872685,21.1014286 143.068403,21.1760714 143.187153,21.3253571 C143.305903,21.4746429 143.365278,21.6714286 143.365278,21.9157143 L143.365278,21.9157143 L143.365278,28.1992857 C143.365278,28.4345238 143.429051,28.6267857 143.556597,28.7760714 C143.684144,28.9253571 143.875463,29 144.130556,29 L144.130556,29 L144.869444,29 C144.957407,29 145.02338,28.9728571 145.067361,28.9185714 C145.111343,28.8642857 145.133333,28.7964286 145.133333,28.715 L145.133333,28.715 L145.133333,21.9157143 C145.133333,21.5266667 145.056366,21.2077381 144.902431,20.9589286 C144.748495,20.710119 144.535185,20.5088095 144.2625,20.355 C144.535185,20.2011905 144.748495,19.997619 144.902431,19.7442857 C145.056366,19.4909524 145.133333,19.1652381 145.133333,18.7671429 L145.133333,18.7671429 L145.133333,12.3342857 C145.133333,11.9814286 145.073958,11.6602381 144.955208,11.3707143 C144.836458,11.0811905 144.66713,10.8369048 144.447222,10.6378571 C144.227315,10.4388095 143.963426,10.2827381 143.655556,10.1696429 C143.347685,10.0565476 143.00463,10 142.626389,10 L142.626389,10 L140.330556,10 C140.242593,10 140.17662,10.0271429 140.132639,10.0814286 C140.088657,10.1357143 140.066667,10.2035714 140.066667,10.285 L140.066667,10.285 L140.066667,28.715 C140.066667,28.7964286 140.088657,28.8642857 140.132639,28.9185714 C140.17662,28.9728571 140.242593,29 140.330556,29 L140.330556,29 L141.069444,29 Z M142.6,18.8666667 L141.571467,18.8666667 L141.571467,11.2666667 L142.6,11.2666667 C142.942844,11.2666667 143.199978,11.3391695 143.3714,11.4841751 C143.542822,11.6291807 143.628533,11.8125701 143.628533,12.0343434 L143.628533,12.0343434 L143.628533,18.0989899 C143.628533,18.3207632 143.545778,18.5041526 143.380267,18.6491582 C143.214756,18.7941639 142.954667,18.8666667 142.6,18.8666667 L142.6,18.8666667 Z M155.007576,29 C155.081602,29 155.14329,28.9785311 155.192641,28.9355932 C155.241991,28.8926554 155.266667,28.8282486 155.266667,28.7423729 L155.266667,28.7423729 L155.266667,28.3044068 C155.266667,28.0811299 155.209091,27.900791 155.093939,27.7633898 C154.978788,27.6259887 154.826623,27.5572881 154.637446,27.5572881 L154.637446,27.5572881 L153.119913,27.5572881 L153.119913,22.2115254 L154.390693,22.2115254 C154.57987,22.2115254 154.732035,22.1428249 154.847186,22.0054237 C154.962338,21.8680226 155.019913,21.6876836 155.019913,21.4644068 L155.019913,21.4644068 L155.019913,21.0264407 C155.019913,20.940565 154.995238,20.8761582 154.945887,20.8332203 C154.896537,20.7902825 154.834848,20.7688136 154.760823,20.7688136 L154.760823,20.7688136 L153.119913,20.7688136 L153.119913,15.2427119 L154.637446,15.2427119 C154.826623,15.2427119 154.978788,15.1740113 155.093939,15.0366102 C155.209091,14.899209 155.266667,14.7188701 155.266667,14.4955932 L155.266667,14.4955932 L155.266667,14.0576271 C155.266667,13.9717514 155.241991,13.9073446 155.192641,13.8644068 C155.14329,13.8214689 155.081602,13.8 155.007576,13.8 L155.007576,13.8 L151.71342,13.8 C151.631169,13.8 151.569481,13.8257627 151.528355,13.8772881 C151.487229,13.9288136 151.466667,13.9932203 151.466667,14.0705085 L151.466667,14.0705085 L151.466667,28.7294915 C151.466667,28.8067797 151.487229,28.8711864 151.528355,28.9227119 C151.569481,28.9742373 151.631169,29 151.71342,29 L151.71342,29 L155.007576,29 Z M162.679626,29 C162.954268,29 163.162617,28.9291525 163.304673,28.7874576 C163.446729,28.6457627 163.513022,28.4632768 163.503551,28.24 L163.503551,28.24 L163.077383,18.4244068 L164.41271,28.3559322 C164.431651,28.5362712 164.540561,28.6887006 164.739439,28.8132203 C164.938318,28.9377401 165.156137,29 165.392897,29 L165.392897,29 L165.421308,29 C165.658069,29 165.875888,28.9377401 166.074766,28.8132203 C166.273645,28.6887006 166.382555,28.5362712 166.401495,28.3559322 L166.401495,28.3559322 L167.722617,18.4501695 L167.296449,28.24 C167.286978,28.4632768 167.353271,28.6457627 167.495327,28.7874576 C167.637383,28.9291525 167.845732,29 168.120374,29 L168.120374,29 L168.915888,29 C169.010592,29 169.08162,28.9742373 169.128972,28.9227119 C169.176324,28.8711864 169.2,28.8067797 169.2,28.7294915 L169.2,28.7294915 L169.2,14.0705085 C169.2,13.9932203 169.176324,13.9288136 169.128972,13.8772881 C169.08162,13.8257627 169.010592,13.8 168.915888,13.8 L168.915888,13.8 L167.836262,13.8 C167.703676,13.8 167.57109,13.8257627 167.438505,13.8772881 C167.305919,13.9288136 167.182804,14.0447458 167.069159,14.2250847 C166.955514,14.4054237 166.85134,14.6694915 166.756636,15.0172881 C166.661931,15.3650847 166.581433,15.8352542 166.51514,16.4277966 L166.51514,16.4277966 L165.407103,24.4915254 L164.171215,16.4277966 C164.104922,15.8266667 164.024424,15.3522034 163.92972,15.0044068 C163.835016,14.6566102 163.730841,14.3925424 163.617196,14.2122034 C163.503551,14.0318644 163.380436,13.9180791 163.24785,13.8708475 C163.115265,13.8236158 162.982679,13.8 162.850093,13.8 L162.850093,13.8 L161.884112,13.8 C161.789408,13.8 161.71838,13.8257627 161.671028,13.8772881 C161.623676,13.9288136 161.6,13.9932203 161.6,14.0705085 L161.6,14.0705085 L161.6,28.7294915 C161.6,28.8067797 161.623676,28.8711864 161.671028,28.9227119 C161.71838,28.9742373 161.789408,29 161.884112,29 L161.884112,29 L162.679626,29 Z M176.553182,29 C176.779413,29 176.967185,28.9377401 177.116497,28.8132203 C177.265809,28.6887006 177.349515,28.5362712 177.367613,28.3559322 L177.367613,28.3559322 L177.503352,26.2820339 L178.629982,26.2820339 L178.76572,28.3559322 C178.783819,28.5362712 178.867524,28.6887006 179.016836,28.8132203 C179.166149,28.9377401 179.35392,29 179.580151,29 L179.580151,29 L180.24527,29 C180.371959,29 180.464714,28.9656497 180.523534,28.8969492 C180.582354,28.8282486 180.607239,28.7552542 180.59819,28.6779661 L180.59819,28.6779661 L179.105066,14.0576271 C179.096017,13.9889266 179.068869,13.9288136 179.023623,13.8772881 C178.978377,13.8257627 178.915032,13.8 178.833589,13.8 L178.833589,13.8 L177.299744,13.8 C177.218301,13.8 177.154956,13.8257627 177.10971,13.8772881 C177.064464,13.9288136 177.037316,13.9889266 177.028267,14.0576271 L177.028267,14.0576271 L175.535143,28.6779661 C175.526094,28.7552542 175.550979,28.8282486 175.609799,28.8969492 C175.668619,28.9656497 175.761374,29 175.888063,29 L175.888063,29 L176.553182,29 Z M178.678467,23.9333333 L177.454867,23.9333333 L178.0578,16.3333333 L178.678467,23.9333333 Z M188.749733,29 C188.927067,29 189.0778,28.9549153 189.201933,28.8647458 C189.326067,28.7745763 189.388133,28.6650847 189.388133,28.5362712 L189.388133,28.5362712 L189.388133,14.0705085 C189.388133,13.9932203 189.358578,13.9288136 189.299467,13.8772881 C189.240356,13.8257627 189.151689,13.8 189.033467,13.8 L189.033467,13.8 L188.0404,13.8 C187.733022,13.8 187.484756,13.860113 187.2956,13.980339 C187.106444,14.100565 187.011867,14.259435 187.011867,14.4569492 L187.011867,14.4569492 L187.011867,28.5362712 C187.011867,28.6650847 187.073933,28.7745763 187.198067,28.8647458 C187.3222,28.9549153 187.472933,29 187.650267,29 L187.650267,29 L188.749733,29 Z M196.802778,29 C197.05787,29 197.251389,28.9291525 197.383333,28.7874576 C197.515278,28.6457627 197.576852,28.4632768 197.568056,28.24 L197.568056,28.24 L197.436111,20.6271186 C197.506481,21.0564972 197.596644,21.5331073 197.706597,22.0569492 C197.816551,22.580791 197.933102,23.1132203 198.05625,23.6542373 C198.179398,24.1952542 198.302546,24.7255367 198.425694,25.2450847 C198.548843,25.7646328 198.660995,26.2412429 198.762153,26.6749153 C198.86331,27.1085876 198.946875,27.48 199.012847,27.7891525 C199.078819,28.0983051 199.111806,28.3044068 199.111806,28.4074576 C199.138194,28.5877966 199.212963,28.7316384 199.336111,28.8389831 C199.459259,28.9463277 199.635185,29 199.863889,29 L199.863889,29 L200.602778,29 C200.690741,29 200.756713,28.9742373 200.800694,28.9227119 C200.844676,28.8711864 200.866667,28.8067797 200.866667,28.7294915 L200.866667,28.7294915 L200.866667,14.0705085 C200.866667,13.9932203 200.844676,13.9288136 200.800694,13.8772881 C200.756713,13.8257627 200.690741,13.8 200.602778,13.8 L200.602778,13.8 L199.863889,13.8 C199.635185,13.8 199.450463,13.860113 199.309722,13.980339 C199.168981,14.100565 199.098611,14.259435 199.098611,14.4569492 L199.098611,14.4569492 L199.230556,22.6108475 C199.142593,22.2415819 199.043634,21.8036158 198.933681,21.2969492 C198.823727,20.7902825 198.709375,20.2557062 198.590625,19.6932203 C198.471875,19.1307345 198.355324,18.5661017 198.240972,17.999322 C198.12662,17.4325424 198.021065,16.9087006 197.924306,16.4277966 C197.827546,15.9468927 197.74838,15.5282486 197.686806,15.1718644 C197.625231,14.8154802 197.585648,14.5685876 197.568056,14.4311864 C197.550463,14.2422599 197.473495,14.0898305 197.337153,13.9738983 C197.20081,13.8579661 197.022685,13.8 196.802778,13.8 L196.802778,13.8 L196.063889,13.8 C195.975926,13.8 195.909954,13.8257627 195.865972,13.8772881 C195.821991,13.9288136 195.8,13.9932203 195.8,14.0705085 L195.8,14.0705085 L195.8,28.7294915 C195.8,28.8067797 195.821991,28.8711864 195.865972,28.9227119 C195.909954,28.9742373 195.975926,29 196.063889,29 L196.063889,29 L196.802778,29 Z M209.733333,29 C210.111574,29 210.456829,28.9456546 210.769097,28.8369637 C211.081366,28.7282728 211.349653,28.5720297 211.573958,28.3682343 C211.798264,28.1644389 211.969792,27.9198845 212.088542,27.634571 C212.207292,27.3492574 212.266667,27.0254492 212.266667,26.6631463 C212.266667,25.7573891 212.220486,24.9761735 212.128125,24.3194994 C212.035764,23.6628254 211.910417,23.0876696 211.752083,22.5940319 C211.59375,22.1003942 211.415625,21.6701595 211.217708,21.3033278 C211.019792,20.9364961 210.819676,20.590044 210.617361,20.2639714 C210.415046,19.9378988 210.214931,19.6118262 210.017014,19.2857536 C209.819097,18.959681 209.640972,18.5928493 209.482639,18.1852585 C209.324306,17.7776678 209.198958,17.306674 209.106597,16.7722772 C209.014236,16.2378805 208.968056,15.6038504 208.968056,14.870187 C208.968056,14.6256326 209.02963,14.4286304 209.152778,14.2791804 C209.275926,14.1297305 209.469444,14.0550055 209.733333,14.0550055 C209.988426,14.0550055 210.179745,14.1297305 210.307292,14.2791804 C210.434838,14.4286304 210.498611,14.6256326 210.498611,14.870187 L210.498611,14.870187 L210.498611,17.560286 C210.498611,17.7957829 210.562384,17.9882563 210.689931,18.1377063 C210.817477,18.2871562 211.008796,18.3618812 211.263889,18.3618812 L211.263889,18.3618812 L212.002778,18.3618812 C212.090741,18.3618812 212.156713,18.3347085 212.200694,18.280363 C212.244676,18.2260176 212.266667,18.1580858 212.266667,18.0765677 L212.266667,18.0765677 L212.266667,14.870187 C212.266667,14.1455812 212.04456,13.5749542 211.600347,13.1583058 C211.156134,12.7416575 210.533796,12.5333333 209.733333,12.5333333 C209.346296,12.5333333 208.998843,12.5876788 208.690972,12.6963696 C208.383102,12.8050605 208.117014,12.9613036 207.892708,13.165099 C207.668403,13.3688944 207.496875,13.6134488 207.378125,13.8987624 C207.259375,14.1840759 207.2,14.5078841 207.2,14.870187 C207.2,15.7306564 207.246181,16.459791 207.338542,17.0575908 C207.430903,17.6553905 207.55625,18.176201 207.714583,18.620022 C207.872917,19.0638431 208.051042,19.4487899 208.248958,19.7748625 C208.446875,20.1009351 208.646991,20.4156857 208.849306,20.7191144 C209.05162,21.0225431 209.251736,21.3395581 209.449653,21.6701595 C209.647569,22.0007609 209.825694,22.3902365 209.984028,22.8385864 C210.142361,23.2869362 210.267708,23.8190686 210.360069,24.4349835 C210.452431,25.0508984 210.498611,25.7936194 210.498611,26.6631463 C210.498611,26.9077008 210.437037,27.104703 210.313889,27.2541529 C210.190741,27.4036029 209.997222,27.4783278 209.733333,27.4783278 C209.478241,27.4783278 209.286921,27.4036029 209.159375,27.2541529 C209.031829,27.104703 208.968056,26.9077008 208.968056,26.6631463 L208.968056,26.6631463 L208.968056,23.8371837 C208.968056,23.6016868 208.904282,23.4092134 208.776736,23.2597635 C208.64919,23.1103135 208.45787,23.0355886 208.202778,23.0355886 L208.202778,23.0355886 L207.463889,23.0355886 C207.375926,23.0355886 207.309954,23.0627613 207.265972,23.1171067 C207.221991,23.1714521 207.2,23.2393839 207.2,23.3209021 L207.2,23.3209021 L207.2,26.6631463 C207.2,27.3877521 207.422106,27.9583792 207.866319,28.3750275 C208.310532,28.7916758 208.93287,29 209.733333,29 Z" id="RemnaintRemains" fill-rule="nonzero"></path>
            </g>
        </g>
    </g>
</svg>