<?xml version="1.0" encoding="UTF-8"?>
<svg width="173px" height="76px" viewBox="0 0 173 76" version="1.1" xmlns="http://www.w3.org/2000/svg" xmlns:xlink="http://www.w3.org/1999/xlink">
    <title>arr-logo-vert</title>
    <g id="Page-1" stroke="none" stroke-width="1" fill="none" fill-rule="evenodd">
        <g id="iPhone-SE" transform="translate(-70.000000, -287.000000)" fill="#A8AAAF">
            <g id="arr-logo-vert" transform="translate(70.000000, 287.000000)">
                <g id="arr-logo" transform="translate(64.000000, 0.000000)">
                    <path d="M21.9082828,0 L18.1247115,4.78691443 C18.1247115,5.6425574 18.1247115,6.07037888 18.1247115,6.07037888 C13.5456782,7.18533332 8.25299875,9.54466171 2.24667323,13.148364 C2.74115353,23.167409 3.50586075,29.946354 4.54079488,33.4851993 C3.73244459,33.9140828 3.32826944,34.1285245 3.32826944,34.1285245 C1.75139846,38.0428415 0.962962963,40 0.962962963,40 L8.63185668,35.4741505 C6.87914223,31.6948465 6.08403316,24.7224428 6.24652947,14.5569395 C14.4497331,10.3961232 19.6885443,8.50307993 21.962963,8.87780987 L21.909986,0.582522191 L21.9082828,0 Z" id="Path"></path>
                    <path d="M44.9082828,0 L41.1247115,4.78691443 C41.1247115,5.6425574 41.1247115,6.07037888 41.1247115,6.07037888 C36.5456782,7.18533332 31.2529988,9.54466171 25.2466732,13.148364 C25.7411535,23.167409 26.5058607,29.946354 27.5407949,33.4851993 C26.7324446,33.9140828 26.3282694,34.1285245 26.3282694,34.1285245 C24.7513985,38.0428415 23.962963,40 23.962963,40 L31.6318567,35.4741505 C29.8791422,31.6948465 29.0840332,24.7224428 29.2465295,14.5569395 C37.4497331,10.3961232 42.6885443,8.50307993 44.962963,8.87780987 L44.8913059,0.410152224 L44.9082828,0 Z" id="Path" transform="translate(34.462963, 20.000000) scale(-1, 1) translate(-34.462963, -20.000000) "></path>
                    <path d="M1.96296296,41.2589532 L9.31033678,37 C11.9859745,41.6802232 16.4949059,45.2259736 22.837131,47.6372513 C29.1408283,45.2124171 33.6329645,41.6929007 36.3135397,37.078702 C41.4131552,39.8655361 43.962963,41.2589532 43.962963,41.2589532 C39.8797616,41.9083177 37.8381609,42.2329999 37.8381609,42.2329999 C37.1882798,41.9875607 36.8633392,41.8648411 36.8633392,41.8648411 C33.689447,45.6385851 29.0508648,48.6836381 22.9475926,51 C16.5957379,48.6549029 11.9242067,45.60985 8.93299884,41.8648411 L7.94519888,42.2329999 L1.96296296,41.2589532 Z" id="Path-2"></path>
                    <path d="M21.7600494,10 L21.7886695,22.2800721 L19.1152838,23.6256346 C19.1152838,23.6256346 20.032077,24.2571955 21.8656632,25.5203175 C21.8656632,25.5203175 21.8980965,29.9447191 21.962963,38.7935222 C20.7180904,38.2703375 19.3752332,37.2314139 17.9343914,35.6767513 L17.9343914,35.6767513 L17.9343914,25.7695003 L12.5328662,28.1217217 C13.2206394,33.2921856 16.3058371,37.5098535 21.7884592,40.7747255 L21.7884592,40.7747255 L21.7600494,45 C11.5325328,41.0491013 6.99111323,31.1195965 8.1357906,15.2114856 L8.1357906,15.2114856 L8.63241602,14.9417124 C14.3331732,11.8928792 18.7090509,10.2456417 21.7600494,10 L21.7600494,10 Z M17.9796332,15.0049276 C15.2773408,15.9766387 13.3080979,16.8665927 12.0719046,17.6747894 C12.1328627,21.907094 12.1633417,24.0232463 12.1633417,24.0232463 C15.1220479,22.572864 17.037688,21.7796233 17.910262,21.6435241 L17.9796332,15.0798709 L17.9796332,15.0049276 Z" id="Combined-Shape"></path>
                    <path d="M24.2290719,10.0000536 C26.591074,10.0370926 31.1251486,11.8066096 37.8312959,15.3086049 C38.0946301,20.0637202 37.962963,23.7541413 37.4362946,26.3798683 L37.4362946,26.3798683 L35.0072296,26.7666511 L36.960275,29.5164377 C35.5296443,36.9022986 31.2155231,42.063486 24.0179115,45 L24.0179115,45 L23.962963,40.5570388 C29.1092925,37.8868471 32.2265049,33.769427 33.3146002,28.2047787 L33.3146002,28.2047787 L27.8957227,25.798866 C27.8957227,25.798866 27.8562523,29.1927386 27.7773114,35.9804837 C27.0179751,36.8680718 25.7648418,37.7611062 24.0179115,38.6595869 L24.0179115,38.6595869 L23.962963,10.0002129 Z M27.9632864,15.0105386 L27.804022,15.0105386 L27.804022,21.5453589 C31.0052104,22.8090951 32.9912737,23.6363656 33.762212,24.0271704 L33.8298254,17.7676727 C32.3270461,16.70104 30.3715331,15.7819953 27.9632864,15.0105386 Z" id="Combined-Shape"></path>
                </g>
                <path d="M1.00277778,76 C1.25787037,76 1.44918981,75.9253571 1.57673611,75.7760714 C1.70428241,75.6267857 1.76805556,75.4345238 1.76805556,75.1992857 L1.76805556,75.1992857 L1.76805556,68.1014286 L2.53333333,68.1014286 C2.80601852,68.1014286 3.00173611,68.1760714 3.12048611,68.3253571 C3.23923611,68.4746429 3.29861111,68.6714286 3.29861111,68.9157143 L3.29861111,68.9157143 L3.29861111,75.1992857 C3.29861111,75.4345238 3.36238426,75.6267857 3.48993056,75.7760714 C3.61747685,75.9253571 3.8087963,76 4.06388889,76 L4.06388889,76 L4.80277778,76 C4.89074074,76 4.95671296,75.9728571 5.00069444,75.9185714 C5.04467593,75.8642857 5.06666667,75.7964286 5.06666667,75.715 L5.06666667,75.715 L5.06666667,68.9157143 C5.06666667,68.5266667 4.98969907,68.2077381 4.83576389,67.9589286 C4.6818287,67.710119 4.46851852,67.5088095 4.19583333,67.355 C4.46851852,67.2011905 4.6818287,66.997619 4.83576389,66.7442857 C4.98969907,66.4909524 5.06666667,66.1652381 5.06666667,65.7671429 L5.06666667,65.7671429 L5.06666667,59.3342857 C5.06666667,58.9814286 5.00729167,58.6602381 4.88854167,58.3707143 C4.76979167,58.0811905 4.60046296,57.8369048 4.38055556,57.6378571 C4.16064815,57.4388095 3.89675926,57.2827381 3.58888889,57.1696429 C3.28101852,57.0565476 2.93796296,57 2.55972222,57 L2.55972222,57 L0.263888889,57 C0.175925926,57 0.109953704,57.0271429 0.0659722222,57.0814286 C0.0219907407,57.1357143 0,57.2035714 0,57.285 L0,57.285 L0,75.715 C0,75.7964286 0.0219907407,75.8642857 0.0659722222,75.9185714 C0.109953704,75.9728571 0.175925926,76 0.263888889,76 L0.263888889,76 L1.00277778,76 Z M2.53333333,65.8666667 L1.5048,65.8666667 L1.5048,58.2666667 L2.53333333,58.2666667 C2.87617778,58.2666667 3.13331111,58.3391695 3.30473333,58.4841751 C3.47615556,58.6291807 3.56186667,58.8125701 3.56186667,59.0343434 L3.56186667,59.0343434 L3.56186667,65.0989899 C3.56186667,65.3207632 3.47911111,65.5041526 3.3136,65.6491582 C3.14808889,65.7941639 2.888,65.8666667 2.53333333,65.8666667 L2.53333333,65.8666667 Z M14.9409091,76 C15.0149351,76 15.0766234,75.9785311 15.125974,75.9355932 C15.1753247,75.8926554 15.2,75.8282486 15.2,75.7423729 L15.2,75.7423729 L15.2,75.3044068 C15.2,75.0811299 15.1424242,74.900791 15.0272727,74.7633898 C14.9121212,74.6259887 14.7599567,74.5572881 14.5707792,74.5572881 L14.5707792,74.5572881 L13.0532468,74.5572881 L13.0532468,69.2115254 L14.324026,69.2115254 C14.5132035,69.2115254 14.665368,69.1428249 14.7805195,69.0054237 C14.895671,68.8680226 14.9532468,68.6876836 14.9532468,68.4644068 L14.9532468,68.4644068 L14.9532468,68.0264407 C14.9532468,67.940565 14.9285714,67.8761582 14.8792208,67.8332203 C14.8298701,67.7902825 14.7681818,67.7688136 14.6941558,67.7688136 L14.6941558,67.7688136 L13.0532468,67.7688136 L13.0532468,62.2427119 L14.5707792,62.2427119 C14.7599567,62.2427119 14.9121212,62.1740113 15.0272727,62.0366102 C15.1424242,61.899209 15.2,61.7188701 15.2,61.4955932 L15.2,61.4955932 L15.2,61.0576271 C15.2,60.9717514 15.1753247,60.9073446 15.125974,60.8644068 C15.0766234,60.8214689 15.0149351,60.8 14.9409091,60.8 L14.9409091,60.8 L11.6467532,60.8 C11.5645022,60.8 11.5028139,60.8257627 11.4616883,60.8772881 C11.4205628,60.9288136 11.4,60.9932203 11.4,61.0705085 L11.4,61.0705085 L11.4,75.7294915 C11.4,75.8067797 11.4205628,75.8711864 11.4616883,75.9227119 C11.5028139,75.9742373 11.5645022,76 11.6467532,76 L11.6467532,76 L14.9409091,76 Z M22.6129595,76 C22.8876012,76 23.0959502,75.9291525 23.2380062,75.7874576 C23.3800623,75.6457627 23.4463551,75.4632768 23.4368847,75.24 L23.4368847,75.24 L23.0107165,65.4244068 L24.3460436,75.3559322 C24.3649844,75.5362712 24.4738941,75.6887006 24.6727726,75.8132203 C24.8716511,75.9377401 25.0894704,76 25.3262305,76 L25.3262305,76 L25.3546417,76 C25.5914019,76 25.8092212,75.9377401 26.0080997,75.8132203 C26.2069782,75.6887006 26.3158879,75.5362712 26.3348287,75.3559322 L26.3348287,75.3559322 L27.6559502,65.4501695 L27.2297819,75.24 C27.2203115,75.4632768 27.2866044,75.6457627 27.4286604,75.7874576 C27.5707165,75.9291525 27.7790654,76 28.0537072,76 L28.0537072,76 L28.8492212,76 C28.9439252,76 29.0149533,75.9742373 29.0623053,75.9227119 C29.1096573,75.8711864 29.1333333,75.8067797 29.1333333,75.7294915 L29.1333333,75.7294915 L29.1333333,61.0705085 C29.1333333,60.9932203 29.1096573,60.9288136 29.0623053,60.8772881 C29.0149533,60.8257627 28.9439252,60.8 28.8492212,60.8 L28.8492212,60.8 L27.769595,60.8 C27.6370093,60.8 27.5044237,60.8257627 27.371838,60.8772881 C27.2392523,60.9288136 27.1161371,61.0447458 27.0024922,61.2250847 C26.8888474,61.4054237 26.7846729,61.6694915 26.6899688,62.0172881 C26.5952648,62.3650847 26.5147664,62.8352542 26.4484735,63.4277966 L26.4484735,63.4277966 L25.3404361,71.4915254 L24.1045483,63.4277966 C24.0382555,62.8266667 23.957757,62.3522034 23.863053,62.0044068 C23.7683489,61.6566102 23.6641745,61.3925424 23.5505296,61.2122034 C23.4368847,61.0318644 23.3137695,60.9180791 23.1811838,60.8708475 C23.0485981,60.8236158 22.9160125,60.8 22.7834268,60.8 L22.7834268,60.8 L21.8174455,60.8 C21.7227414,60.8 21.6517134,60.8257627 21.6043614,60.8772881 C21.5570093,60.9288136 21.5333333,60.9932203 21.5333333,61.0705085 L21.5333333,61.0705085 L21.5333333,75.7294915 C21.5333333,75.8067797 21.5570093,75.8711864 21.6043614,75.9227119 C21.6517134,75.9742373 21.7227414,76 21.8174455,76 L21.8174455,76 L22.6129595,76 Z M37.7361111,76 C37.9912037,76 38.1847222,75.9291525 38.3166667,75.7874576 C38.4486111,75.6457627 38.5101852,75.4632768 38.5013889,75.24 L38.5013889,75.24 L38.3694444,67.6271186 C38.4398148,68.0564972 38.5299769,68.5331073 38.6399306,69.0569492 C38.7498843,69.580791 38.8664352,70.1132203 38.9895833,70.6542373 C39.1127315,71.1952542 39.2358796,71.7255367 39.3590278,72.2450847 C39.4821759,72.7646328 39.5943287,73.2412429 39.6954861,73.6749153 C39.7966435,74.1085876 39.8802083,74.48 39.9461806,74.7891525 C40.0121528,75.0983051 40.0451389,75.3044068 40.0451389,75.4074576 C40.0715278,75.5877966 40.1462963,75.7316384 40.2694444,75.8389831 C40.3925926,75.9463277 40.5685185,76 40.7972222,76 L40.7972222,76 L41.5361111,76 C41.6240741,76 41.6900463,75.9742373 41.7340278,75.9227119 C41.7780093,75.8711864 41.8,75.8067797 41.8,75.7294915 L41.8,75.7294915 L41.8,61.0705085 C41.8,60.9932203 41.7780093,60.9288136 41.7340278,60.8772881 C41.6900463,60.8257627 41.6240741,60.8 41.5361111,60.8 L41.5361111,60.8 L40.7972222,60.8 C40.5685185,60.8 40.3837963,60.860113 40.2430556,60.980339 C40.1023148,61.100565 40.0319444,61.259435 40.0319444,61.4569492 L40.0319444,61.4569492 L40.1638889,69.6108475 C40.0759259,69.2415819 39.9769676,68.8036158 39.8670139,68.2969492 C39.7570602,67.7902825 39.6427083,67.2557062 39.5239583,66.6932203 C39.4052083,66.1307345 39.2886574,65.5661017 39.1743056,64.999322 C39.0599537,64.4325424 38.9543981,63.9087006 38.8576389,63.4277966 C38.7608796,62.9468927 38.681713,62.5282486 38.6201389,62.1718644 C38.5585648,61.8154802 38.5189815,61.5685876 38.5013889,61.4311864 C38.4837963,61.2422599 38.4068287,61.0898305 38.2704861,60.9738983 C38.1341435,60.8579661 37.9560185,60.8 37.7361111,60.8 L37.7361111,60.8 L36.9972222,60.8 C36.9092593,60.8 36.843287,60.8257627 36.7993056,60.8772881 C36.7553241,60.9288136 36.7333333,60.9932203 36.7333333,61.0705085 L36.7333333,61.0705085 L36.7333333,75.7294915 C36.7333333,75.8067797 36.7553241,75.8711864 36.7993056,75.9227119 C36.843287,75.9742373 36.9092593,76 36.9972222,76 L36.9972222,76 L37.7361111,76 Z M49.1531821,76 C49.379413,76 49.5671846,75.9377401 49.716497,75.8132203 C49.8658094,75.6887006 49.9495148,75.5362712 49.9676133,75.3559322 L49.9676133,75.3559322 L50.1033518,73.2820339 L51.2299815,73.2820339 L51.3657201,75.3559322 C51.3838185,75.5362712 51.467524,75.6887006 51.6168363,75.8132203 C51.7661487,75.9377401 51.9539203,76 52.1801512,76 L52.1801512,76 L52.84527,76 C52.9719593,76 53.0647139,75.9656497 53.123534,75.8969492 C53.182354,75.8282486 53.2072394,75.7552542 53.1981902,75.6779661 L53.1981902,75.6779661 L51.7050664,61.0576271 C51.6960171,60.9889266 51.6688694,60.9288136 51.6236233,60.8772881 C51.5783771,60.8257627 51.5150324,60.8 51.4335893,60.8 L51.4335893,60.8 L49.899744,60.8 C49.8183009,60.8 49.7549562,60.8257627 49.7097101,60.8772881 C49.6644639,60.9288136 49.6373162,60.9889266 49.628267,61.0576271 L49.628267,61.0576271 L48.1351432,75.6779661 C48.1260939,75.7552542 48.1509793,75.8282486 48.2097994,75.8969492 C48.2686194,75.9656497 48.3613741,76 48.4880633,76 L48.4880633,76 L49.1531821,76 Z M51.2784667,70.9333333 L50.0548667,70.9333333 L50.6578,63.3333333 L51.2784667,70.9333333 Z M60.0830667,76 C60.2604,76 60.4111333,75.9549153 60.5352667,75.8647458 C60.6594,75.7745763 60.7214667,75.6650847 60.7214667,75.5362712 L60.7214667,75.5362712 L60.7214667,61.0705085 C60.7214667,60.9932203 60.6919111,60.9288136 60.6328,60.8772881 C60.5736889,60.8257627 60.4850222,60.8 60.3668,60.8 L60.3668,60.8 L59.3737333,60.8 C59.0663556,60.8 58.8180889,60.860113 58.6289333,60.980339 C58.4397778,61.100565 58.3452,61.259435 58.3452,61.4569492 L58.3452,61.4569492 L58.3452,75.5362712 C58.3452,75.6650847 58.4072667,75.7745763 58.5314,75.8647458 C58.6555333,75.9549153 58.8062667,76 58.9836,76 L58.9836,76 L60.0830667,76 Z M68.1361111,76 C68.3912037,76 68.5847222,75.9291525 68.7166667,75.7874576 C68.8486111,75.6457627 68.9101852,75.4632768 68.9013889,75.24 L68.9013889,75.24 L68.7694444,67.6271186 C68.8398148,68.0564972 68.9299769,68.5331073 69.0399306,69.0569492 C69.1498843,69.580791 69.2664352,70.1132203 69.3895833,70.6542373 C69.5127315,71.1952542 69.6358796,71.7255367 69.7590278,72.2450847 C69.8821759,72.7646328 69.9943287,73.2412429 70.0954861,73.6749153 C70.1966435,74.1085876 70.2802083,74.48 70.3461806,74.7891525 C70.4121528,75.0983051 70.4451389,75.3044068 70.4451389,75.4074576 C70.4715278,75.5877966 70.5462963,75.7316384 70.6694444,75.8389831 C70.7925926,75.9463277 70.9685185,76 71.1972222,76 L71.1972222,76 L71.9361111,76 C72.0240741,76 72.0900463,75.9742373 72.1340278,75.9227119 C72.1780093,75.8711864 72.2,75.8067797 72.2,75.7294915 L72.2,75.7294915 L72.2,61.0705085 C72.2,60.9932203 72.1780093,60.9288136 72.1340278,60.8772881 C72.0900463,60.8257627 72.0240741,60.8 71.9361111,60.8 L71.9361111,60.8 L71.1972222,60.8 C70.9685185,60.8 70.7837963,60.860113 70.6430556,60.980339 C70.5023148,61.100565 70.4319444,61.259435 70.4319444,61.4569492 L70.4319444,61.4569492 L70.5638889,69.6108475 C70.4759259,69.2415819 70.3769676,68.8036158 70.2670139,68.2969492 C70.1570602,67.7902825 70.0427083,67.2557062 69.9239583,66.6932203 C69.8052083,66.1307345 69.6886574,65.5661017 69.5743056,64.999322 C69.4599537,64.4325424 69.3543981,63.9087006 69.2576389,63.4277966 C69.1608796,62.9468927 69.081713,62.5282486 69.0201389,62.1718644 C68.9585648,61.8154802 68.9189815,61.5685876 68.9013889,61.4311864 C68.8837963,61.2422599 68.8068287,61.0898305 68.6704861,60.9738983 C68.5341435,60.8579661 68.3560185,60.8 68.1361111,60.8 L68.1361111,60.8 L67.3972222,60.8 C67.3092593,60.8 67.243287,60.8257627 67.1993056,60.8772881 C67.1553241,60.9288136 67.1333333,60.9932203 67.1333333,61.0705085 L67.1333333,61.0705085 L67.1333333,75.7294915 C67.1333333,75.8067797 67.1553241,75.8711864 67.1993056,75.9227119 C67.243287,75.9742373 67.3092593,76 67.3972222,76 L67.3972222,76 L68.1361111,76 Z M81.502963,76 C81.6437037,76 81.7633333,75.9549153 81.8618519,75.8647458 C81.9603704,75.7745763 82.0096296,75.6650847 82.0096296,75.5362712 L82.0096296,75.5362712 L82.0096296,62.2427119 L82.8822222,62.2427119 C83.0980247,62.2427119 83.2716049,62.1740113 83.402963,62.0366102 C83.534321,61.899209 83.6,61.7188701 83.6,61.4955932 L83.6,61.4955932 L83.6,61.0576271 C83.6,60.9717514 83.5718519,60.9073446 83.5155556,60.8644068 C83.4592593,60.8214689 83.3888889,60.8 83.3044444,60.8 L83.3044444,60.8 L78.8288889,60.8 C78.7444444,60.8 78.6740741,60.8214689 78.6177778,60.8644068 C78.5614815,60.9073446 78.5333333,60.9717514 78.5333333,61.0576271 L78.5333333,61.0576271 L78.5333333,61.4955932 C78.5333333,61.7188701 78.5990123,61.899209 78.7303704,62.0366102 C78.8617284,62.1740113 79.0353086,62.2427119 79.2511111,62.2427119 L79.2511111,62.2427119 L80.1237037,62.2427119 L80.1237037,75.5362712 C80.1237037,75.6650847 80.172963,75.7745763 80.2714815,75.8647458 C80.37,75.9549153 80.4896296,76 80.6303704,76 L80.6303704,76 L81.502963,76 Z M101.069444,76 C101.324537,76 101.515856,75.9253571 101.643403,75.7760714 C101.770949,75.6267857 101.834722,75.4345238 101.834722,75.1992857 L101.834722,75.1992857 L101.834722,68.1014286 L102.6,68.1014286 C102.872685,68.1014286 103.068403,68.1760714 103.187153,68.3253571 C103.305903,68.4746429 103.365278,68.6714286 103.365278,68.9157143 L103.365278,68.9157143 L103.365278,75.1992857 C103.365278,75.4345238 103.429051,75.6267857 103.556597,75.7760714 C103.684144,75.9253571 103.875463,76 104.130556,76 L104.130556,76 L104.869444,76 C104.957407,76 105.02338,75.9728571 105.067361,75.9185714 C105.111343,75.8642857 105.133333,75.7964286 105.133333,75.715 L105.133333,75.715 L105.133333,68.9157143 C105.133333,68.5266667 105.056366,68.2077381 104.902431,67.9589286 C104.748495,67.710119 104.535185,67.5088095 104.2625,67.355 C104.535185,67.2011905 104.748495,66.997619 104.902431,66.7442857 C105.056366,66.4909524 105.133333,66.1652381 105.133333,65.7671429 L105.133333,65.7671429 L105.133333,59.3342857 C105.133333,58.9814286 105.073958,58.6602381 104.955208,58.3707143 C104.836458,58.0811905 104.66713,57.8369048 104.447222,57.6378571 C104.227315,57.4388095 103.963426,57.2827381 103.655556,57.1696429 C103.347685,57.0565476 103.00463,57 102.626389,57 L102.626389,57 L100.330556,57 C100.242593,57 100.17662,57.0271429 100.132639,57.0814286 C100.088657,57.1357143 100.066667,57.2035714 100.066667,57.285 L100.066667,57.285 L100.066667,75.715 C100.066667,75.7964286 100.088657,75.8642857 100.132639,75.9185714 C100.17662,75.9728571 100.242593,76 100.330556,76 L100.330556,76 L101.069444,76 Z M102.6,65.8666667 L101.571467,65.8666667 L101.571467,58.2666667 L102.6,58.2666667 C102.942844,58.2666667 103.199978,58.3391695 103.3714,58.4841751 C103.542822,58.6291807 103.628533,58.8125701 103.628533,59.0343434 L103.628533,59.0343434 L103.628533,65.0989899 C103.628533,65.3207632 103.545778,65.5041526 103.380267,65.6491582 C103.214756,65.7941639 102.954667,65.8666667 102.6,65.8666667 L102.6,65.8666667 Z M115.007576,76 C115.081602,76 115.14329,75.9785311 115.192641,75.9355932 C115.241991,75.8926554 115.266667,75.8282486 115.266667,75.7423729 L115.266667,75.7423729 L115.266667,75.3044068 C115.266667,75.0811299 115.209091,74.900791 115.093939,74.7633898 C114.978788,74.6259887 114.826623,74.5572881 114.637446,74.5572881 L114.637446,74.5572881 L113.119913,74.5572881 L113.119913,69.2115254 L114.390693,69.2115254 C114.57987,69.2115254 114.732035,69.1428249 114.847186,69.0054237 C114.962338,68.8680226 115.019913,68.6876836 115.019913,68.4644068 L115.019913,68.4644068 L115.019913,68.0264407 C115.019913,67.940565 114.995238,67.8761582 114.945887,67.8332203 C114.896537,67.7902825 114.834848,67.7688136 114.760823,67.7688136 L114.760823,67.7688136 L113.119913,67.7688136 L113.119913,62.2427119 L114.637446,62.2427119 C114.826623,62.2427119 114.978788,62.1740113 115.093939,62.0366102 C115.209091,61.899209 115.266667,61.7188701 115.266667,61.4955932 L115.266667,61.4955932 L115.266667,61.0576271 C115.266667,60.9717514 115.241991,60.9073446 115.192641,60.8644068 C115.14329,60.8214689 115.081602,60.8 115.007576,60.8 L115.007576,60.8 L111.71342,60.8 C111.631169,60.8 111.569481,60.8257627 111.528355,60.8772881 C111.487229,60.9288136 111.466667,60.9932203 111.466667,61.0705085 L111.466667,61.0705085 L111.466667,75.7294915 C111.466667,75.8067797 111.487229,75.8711864 111.528355,75.9227119 C111.569481,75.9742373 111.631169,76 111.71342,76 L111.71342,76 L115.007576,76 Z M122.679626,76 C122.954268,76 123.162617,75.9291525 123.304673,75.7874576 C123.446729,75.6457627 123.513022,75.4632768 123.503551,75.24 L123.503551,75.24 L123.077383,65.4244068 L124.41271,75.3559322 C124.431651,75.5362712 124.540561,75.6887006 124.739439,75.8132203 C124.938318,75.9377401 125.156137,76 125.392897,76 L125.392897,76 L125.421308,76 C125.658069,76 125.875888,75.9377401 126.074766,75.8132203 C126.273645,75.6887006 126.382555,75.5362712 126.401495,75.3559322 L126.401495,75.3559322 L127.722617,65.4501695 L127.296449,75.24 C127.286978,75.4632768 127.353271,75.6457627 127.495327,75.7874576 C127.637383,75.9291525 127.845732,76 128.120374,76 L128.120374,76 L128.915888,76 C129.010592,76 129.08162,75.9742373 129.128972,75.9227119 C129.176324,75.8711864 129.2,75.8067797 129.2,75.7294915 L129.2,75.7294915 L129.2,61.0705085 C129.2,60.9932203 129.176324,60.9288136 129.128972,60.8772881 C129.08162,60.8257627 129.010592,60.8 128.915888,60.8 L128.915888,60.8 L127.836262,60.8 C127.703676,60.8 127.57109,60.8257627 127.438505,60.8772881 C127.305919,60.9288136 127.182804,61.0447458 127.069159,61.2250847 C126.955514,61.4054237 126.85134,61.6694915 126.756636,62.0172881 C126.661931,62.3650847 126.581433,62.8352542 126.51514,63.4277966 L126.51514,63.4277966 L125.407103,71.4915254 L124.171215,63.4277966 C124.104922,62.8266667 124.024424,62.3522034 123.92972,62.0044068 C123.835016,61.6566102 123.730841,61.3925424 123.617196,61.2122034 C123.503551,61.0318644 123.380436,60.9180791 123.24785,60.8708475 C123.115265,60.8236158 122.982679,60.8 122.850093,60.8 L122.850093,60.8 L121.884112,60.8 C121.789408,60.8 121.71838,60.8257627 121.671028,60.8772881 C121.623676,60.9288136 121.6,60.9932203 121.6,61.0705085 L121.6,61.0705085 L121.6,75.7294915 C121.6,75.8067797 121.623676,75.8711864 121.671028,75.9227119 C121.71838,75.9742373 121.789408,76 121.884112,76 L121.884112,76 L122.679626,76 Z M136.553182,76 C136.779413,76 136.967185,75.9377401 137.116497,75.8132203 C137.265809,75.6887006 137.349515,75.5362712 137.367613,75.3559322 L137.367613,75.3559322 L137.503352,73.2820339 L138.629982,73.2820339 L138.76572,75.3559322 C138.783819,75.5362712 138.867524,75.6887006 139.016836,75.8132203 C139.166149,75.9377401 139.35392,76 139.580151,76 L139.580151,76 L140.24527,76 C140.371959,76 140.464714,75.9656497 140.523534,75.8969492 C140.582354,75.8282486 140.607239,75.7552542 140.59819,75.6779661 L140.59819,75.6779661 L139.105066,61.0576271 C139.096017,60.9889266 139.068869,60.9288136 139.023623,60.8772881 C138.978377,60.8257627 138.915032,60.8 138.833589,60.8 L138.833589,60.8 L137.299744,60.8 C137.218301,60.8 137.154956,60.8257627 137.10971,60.8772881 C137.064464,60.9288136 137.037316,60.9889266 137.028267,61.0576271 L137.028267,61.0576271 L135.535143,75.6779661 C135.526094,75.7552542 135.550979,75.8282486 135.609799,75.8969492 C135.668619,75.9656497 135.761374,76 135.888063,76 L135.888063,76 L136.553182,76 Z M138.678467,70.9333333 L137.454867,70.9333333 L138.0578,63.3333333 L138.678467,70.9333333 Z M148.749733,76 C148.927067,76 149.0778,75.9549153 149.201933,75.8647458 C149.326067,75.7745763 149.388133,75.6650847 149.388133,75.5362712 L149.388133,75.5362712 L149.388133,61.0705085 C149.388133,60.9932203 149.358578,60.9288136 149.299467,60.8772881 C149.240356,60.8257627 149.151689,60.8 149.033467,60.8 L149.033467,60.8 L148.0404,60.8 C147.733022,60.8 147.484756,60.860113 147.2956,60.980339 C147.106444,61.100565 147.011867,61.259435 147.011867,61.4569492 L147.011867,61.4569492 L147.011867,75.5362712 C147.011867,75.6650847 147.073933,75.7745763 147.198067,75.8647458 C147.3222,75.9549153 147.472933,76 147.650267,76 L147.650267,76 L148.749733,76 Z M156.802778,76 C157.05787,76 157.251389,75.9291525 157.383333,75.7874576 C157.515278,75.6457627 157.576852,75.4632768 157.568056,75.24 L157.568056,75.24 L157.436111,67.6271186 C157.506481,68.0564972 157.596644,68.5331073 157.706597,69.0569492 C157.816551,69.580791 157.933102,70.1132203 158.05625,70.6542373 C158.179398,71.1952542 158.302546,71.7255367 158.425694,72.2450847 C158.548843,72.7646328 158.660995,73.2412429 158.762153,73.6749153 C158.86331,74.1085876 158.946875,74.48 159.012847,74.7891525 C159.078819,75.0983051 159.111806,75.3044068 159.111806,75.4074576 C159.138194,75.5877966 159.212963,75.7316384 159.336111,75.8389831 C159.459259,75.9463277 159.635185,76 159.863889,76 L159.863889,76 L160.602778,76 C160.690741,76 160.756713,75.9742373 160.800694,75.9227119 C160.844676,75.8711864 160.866667,75.8067797 160.866667,75.7294915 L160.866667,75.7294915 L160.866667,61.0705085 C160.866667,60.9932203 160.844676,60.9288136 160.800694,60.8772881 C160.756713,60.8257627 160.690741,60.8 160.602778,60.8 L160.602778,60.8 L159.863889,60.8 C159.635185,60.8 159.450463,60.860113 159.309722,60.980339 C159.168981,61.100565 159.098611,61.259435 159.098611,61.4569492 L159.098611,61.4569492 L159.230556,69.6108475 C159.142593,69.2415819 159.043634,68.8036158 158.933681,68.2969492 C158.823727,67.7902825 158.709375,67.2557062 158.590625,66.6932203 C158.471875,66.1307345 158.355324,65.5661017 158.240972,64.999322 C158.12662,64.4325424 158.021065,63.9087006 157.924306,63.4277966 C157.827546,62.9468927 157.74838,62.5282486 157.686806,62.1718644 C157.625231,61.8154802 157.585648,61.5685876 157.568056,61.4311864 C157.550463,61.2422599 157.473495,61.0898305 157.337153,60.9738983 C157.20081,60.8579661 157.022685,60.8 156.802778,60.8 L156.802778,60.8 L156.063889,60.8 C155.975926,60.8 155.909954,60.8257627 155.865972,60.8772881 C155.821991,60.9288136 155.8,60.9932203 155.8,61.0705085 L155.8,61.0705085 L155.8,75.7294915 C155.8,75.8067797 155.821991,75.8711864 155.865972,75.9227119 C155.909954,75.9742373 155.975926,76 156.063889,76 L156.063889,76 L156.802778,76 Z M169.733333,76 C170.111574,76 170.456829,75.9456546 170.769097,75.8369637 C171.081366,75.7282728 171.349653,75.5720297 171.573958,75.3682343 C171.798264,75.1644389 171.969792,74.9198845 172.088542,74.634571 C172.207292,74.3492574 172.266667,74.0254492 172.266667,73.6631463 C172.266667,72.7573891 172.220486,71.9761735 172.128125,71.3194994 C172.035764,70.6628254 171.910417,70.0876696 171.752083,69.5940319 C171.59375,69.1003942 171.415625,68.6701595 171.217708,68.3033278 C171.019792,67.9364961 170.819676,67.590044 170.617361,67.2639714 C170.415046,66.9378988 170.214931,66.6118262 170.017014,66.2857536 C169.819097,65.959681 169.640972,65.5928493 169.482639,65.1852585 C169.324306,64.7776678 169.198958,64.306674 169.106597,63.7722772 C169.014236,63.2378805 168.968056,62.6038504 168.968056,61.870187 C168.968056,61.6256326 169.02963,61.4286304 169.152778,61.2791804 C169.275926,61.1297305 169.469444,61.0550055 169.733333,61.0550055 C169.988426,61.0550055 170.179745,61.1297305 170.307292,61.2791804 C170.434838,61.4286304 170.498611,61.6256326 170.498611,61.870187 L170.498611,61.870187 L170.498611,64.560286 C170.498611,64.7957829 170.562384,64.9882563 170.689931,65.1377063 C170.817477,65.2871562 171.008796,65.3618812 171.263889,65.3618812 L171.263889,65.3618812 L172.002778,65.3618812 C172.090741,65.3618812 172.156713,65.3347085 172.200694,65.280363 C172.244676,65.2260176 172.266667,65.1580858 172.266667,65.0765677 L172.266667,65.0765677 L172.266667,61.870187 C172.266667,61.1455812 172.04456,60.5749542 171.600347,60.1583058 C171.156134,59.7416575 170.533796,59.5333333 169.733333,59.5333333 C169.346296,59.5333333 168.998843,59.5876788 168.690972,59.6963696 C168.383102,59.8050605 168.117014,59.9613036 167.892708,60.165099 C167.668403,60.3688944 167.496875,60.6134488 167.378125,60.8987624 C167.259375,61.1840759 167.2,61.5078841 167.2,61.870187 C167.2,62.7306564 167.246181,63.459791 167.338542,64.0575908 C167.430903,64.6553905 167.55625,65.176201 167.714583,65.620022 C167.872917,66.0638431 168.051042,66.4487899 168.248958,66.7748625 C168.446875,67.1009351 168.646991,67.4156857 168.849306,67.7191144 C169.05162,68.0225431 169.251736,68.3395581 169.449653,68.6701595 C169.647569,69.0007609 169.825694,69.3902365 169.984028,69.8385864 C170.142361,70.2869362 170.267708,70.8190686 170.360069,71.4349835 C170.452431,72.0508984 170.498611,72.7936194 170.498611,73.6631463 C170.498611,73.9077008 170.437037,74.104703 170.313889,74.2541529 C170.190741,74.4036029 169.997222,74.4783278 169.733333,74.4783278 C169.478241,74.4783278 169.286921,74.4036029 169.159375,74.2541529 C169.031829,74.104703 168.968056,73.9077008 168.968056,73.6631463 L168.968056,73.6631463 L168.968056,70.8371837 C168.968056,70.6016868 168.904282,70.4092134 168.776736,70.2597635 C168.64919,70.1103135 168.45787,70.0355886 168.202778,70.0355886 L168.202778,70.0355886 L167.463889,70.0355886 C167.375926,70.0355886 167.309954,70.0627613 167.265972,70.1171067 C167.221991,70.1714521 167.2,70.2393839 167.2,70.3209021 L167.2,70.3209021 L167.2,73.6631463 C167.2,74.3877521 167.422106,74.9583792 167.866319,75.3750275 C168.310532,75.7916758 168.93287,76 169.733333,76 Z" id="RemnaintRemains" fill-rule="nonzero"></path>
            </g>
        </g>
    </g>
</svg>