<?xml version="1.0" encoding="UTF-8"?>
<svg width="49px" height="55px" viewBox="0 0 49 55" version="1.1" xmlns="http://www.w3.org/2000/svg" xmlns:xlink="http://www.w3.org/1999/xlink">
    <title>arr-logo</title>
    <g id="Page-1" stroke="none" stroke-width="1" fill="none" fill-rule="evenodd">
        <g id="iPhone-SE" transform="translate(-157.000000, -230.000000)" fill="#A8AAAF">
            <g id="arr-logo" transform="translate(157.944388, 230.000000)">
                <path d="M22.3877224,1.0855514e-14 L18.3435949,5.11435178 C18.3435949,6.02852295 18.3435949,6.48560853 18.3435949,6.48560853 C13.4492258,7.67682874 7.79206519,10.1975413 1.37211317,14.0477462 C1.90064593,24.7521198 2.71801482,31.9947622 3.82421985,35.7756737 C2.96020239,36.2338939 2.52819366,36.463004 2.52819366,36.463004 C0.842731221,40.6450704 1.0855514e-14,42.7361037 1.0855514e-14,42.7361037 L8.19701323,37.9006743 C6.32359783,33.8628561 5.47373346,26.413522 5.6474201,15.5526719 C14.4155386,11.1072449 20.0151212,9.08471263 22.4461681,9.48507507 L22.3895429,0.622368218 L22.3877224,1.0855514e-14 Z" id="Path"></path>
                <path d="M46.8888084,1.0855514e-14 L42.8446809,5.11435178 C42.8446809,6.02852295 42.8446809,6.48560853 42.8446809,6.48560853 C37.9503118,7.67682874 32.2931512,10.1975413 25.8731992,14.0477462 C26.401732,24.7521198 27.2191009,31.9947622 28.3253059,35.7756737 C27.4612884,36.2338939 27.0292797,36.463004 27.0292797,36.463004 C25.3438173,40.6450704 24.501086,42.7361037 24.501086,42.7361037 L32.6980993,37.9006743 C30.8246839,33.8628561 29.9748195,26.413522 30.1485061,15.5526719 C38.9166246,11.1072449 44.5162073,9.08471263 46.9472542,9.48507507 L46.8706625,0.438207699 L46.8888084,1.0855514e-14 Z" id="Path" transform="translate(35.724170, 21.368052) scale(-1, 1) translate(-35.724170, -21.368052) "></path>
                <path d="M1.10222559,44.3413574 L8.95106837,39.799718 C11.8093222,44.790589 16.6259948,48.5716871 23.401086,51.1430122 C30.1350198,48.5572307 34.9337509,44.8041079 37.7972793,39.8836439 C43.244951,42.8554529 45.9687868,44.3413574 45.9687868,44.3413574 C41.606901,45.0338231 39.425958,45.380056 39.425958,45.380056 C38.7317216,45.1183259 38.3846034,44.9874608 38.3846034,44.9874608 C34.9940884,49.0116855 30.0389162,52.2588525 23.5190868,54.7289619 C16.7337088,52.2282101 11.7433387,48.981043 8.54797657,44.9874608 L7.49275782,45.380056 L1.10222559,44.3413574 Z" id="Path-2"></path>
                <path d="M22.4461681,11.1524862 L22.4777157,24.3367617 L19.5308822,25.7814002 C19.5308822,25.7814002 20.5414497,26.4594642 22.5625847,27.815592 C22.5625847,27.815592 22.5983354,32.5657701 22.6698368,42.0661261 C21.2976322,41.5044184 19.8174206,40.3889971 18.229202,38.719862 L18.229202,38.719862 L18.229202,28.0831226 L12.2751807,30.6085422 C13.0333029,36.1597164 16.4340706,40.6879386 22.4774839,44.1932089 L22.4774839,44.1932089 L22.4461681,48.7295978 C11.172528,44.4877875 6.16658838,33.8271558 7.42834931,16.7477027 L7.42834931,16.7477027 L7.97577217,16.4580656 C14.2596324,13.1847415 19.0830977,11.416215 22.4461681,11.1524862 L22.4461681,11.1524862 Z M18.2790714,16.5259354 C15.3003744,17.5691954 13.1297071,18.5246782 11.7670696,19.3923838 C11.8342627,23.9363205 11.8678593,26.2082888 11.8678593,26.2082888 C15.1291973,24.6511123 17.2407791,23.7994639 18.2026045,23.6533435 L18.2790714,16.6063969 L18.2790714,16.5259354 Z" id="Combined-Shape"></path>
                <path d="M24.6129863,11.1454029 C27.1844249,11.1816131 32.1270361,13.081815 39.4408201,16.8460087 C39.7277373,21.9522067 39.5842787,25.9151013 39.0104444,28.7346927 L39.0104444,28.7346927 L36.3638441,29.1500327 L38.4917948,32.1028433 C36.9330437,40.0340217 32.2325706,45.5762733 24.3903755,48.7295978 L24.3903755,48.7295978 L24.330506,43.958601 C29.937716,41.091262 33.334091,36.669842 34.5196309,30.694341 L34.5196309,30.694341 L28.6154648,28.1107934 C28.6154648,28.1107934 28.5724596,31.7552446 28.4864491,39.0441469 C27.6591103,39.9972679 26.2937524,40.9562374 24.3903755,41.9210553 L24.3903755,41.9210553 L24.330506,11.1456841 Z M28.6890791,16.5259354 L28.5155518,16.5259354 L28.5155518,23.5432387 C32.0034233,24.9002799 34.1673489,25.7886299 35.0073286,26.2082888 L35.0809972,19.486636 C33.4436363,18.3412509 31.3129969,17.3543507 28.6890791,16.5259354 Z" id="Combined-Shape"></path>
            </g>
        </g>
    </g>
</svg>